HIERARCHY
ROOT Root
{
  OFFSET 0.0 0.0 0.0
  CHANNELS 6 Xposition Yposition Zposition Zrotation Yrotation Xrotation
  JOINT Hips
  {
    OFFSET 0.0 100.0 0.0
    CHANNELS 6 Xposition Yposition Zposition Zrotation Yrotation Xrotation
    JOINT Spine1
    {
      OFFSET -0.013727 5.003763 -0.053727
      CHANNELS 3 Zrotation Yrotation Xrotation
      JOINT Spine2
      {
        OFFSET -0.0 7.125301 -0.029825
        CHANNELS 3 Zrotation Yrotation Xrotation
        JOINT Chest
        {
          OFFSET -1e-06 7.550063 -0.815971
          CHANNELS 3 Zrotation Yrotation Xrotation
          JOINT Neck1
          {
            OFFSET -0.181677 26.311295 -0.553348
            CHANNELS 3 Zrotation Yrotation Xrotation
            JOINT Neck2
            {
              OFFSET -3e-06 7.709397 2.302585
              CHANNELS 3 Zrotation Yrotation Xrotation
              JOINT Head
              {
                OFFSET -5e-06 6.128916 1.953709
                CHANNELS 3 Zrotation Yrotation Xrotation
                JOINT HeadEnd
                {
                  OFFSET 0.003598 16.065403 -1.835379
                  CHANNELS 3 Zrotation Yrotation Xrotation
                }
                JOINT Jaw
                {
                  OFFSET 0.002637 0.475592 3.094941
                  CHANNELS 3 Zrotation Yrotation Xrotation
                }
                JOINT LeftEye
                {
                  OFFSET 3.206381 5.380205 7.586883
                  CHANNELS 3 Zrotation Yrotation Xrotation
                }
                JOINT RightEye
                {
                  OFFSET -3.22244 5.361869 7.558234
                  CHANNELS 3 Zrotation Yrotation Xrotation
                }
              }
            }
          }
          JOINT LeftShoulder
          {
            OFFSET 1.621652 23.237164 5.113413
            CHANNELS 3 Zrotation Yrotation Xrotation
            JOINT LeftArm
            {
              OFFSET 14.919846 2e-06 -5.502326
              CHANNELS 3 Zrotation Yrotation Xrotation
              JOINT LeftForeArm
              {
                OFFSET 28.739307 0.0 -0.002588
                CHANNELS 3 Zrotation Yrotation Xrotation
                JOINT LeftHand
                {
                  OFFSET 27.093981 -1e-06 0.002609
                  CHANNELS 3 Zrotation Yrotation Xrotation
                  JOINT LeftHandThumb1
                  {
                    OFFSET 2.276482 -1.392045 3.191413
                    CHANNELS 3 Zrotation Yrotation Xrotation
                    JOINT LeftHandThumb2
                    {
                      OFFSET 4.012836 -1.828127 1.641654
                      CHANNELS 3 Zrotation Yrotation Xrotation
                      JOINT LeftHandThumb3
                      {
                        OFFSET 2.798515 0.0 -3e-06
                        CHANNELS 3 Zrotation Yrotation Xrotation
                        JOINT LeftHandThumbEnd
                        {
                          OFFSET 3.180793 -4e-06 4e-06
                          CHANNELS 3 Zrotation Yrotation Xrotation
                        }
                      }
                    }
                  }
                  JOINT LeftHandIndex1
                  {
                    OFFSET 3.247555 -0.531998 2.296169
                    CHANNELS 3 Zrotation Yrotation Xrotation
                    JOINT LeftHandIndex2
                    {
                      OFFSET 6.364578 0.01206 0.1786
                      CHANNELS 3 Zrotation Yrotation Xrotation
                      JOINT LeftHandIndex3
                      {
                        OFFSET 3.662364 0.0 0.0
                        CHANNELS 3 Zrotation Yrotation Xrotation
                        JOINT LeftHandIndex4
                        {
                          OFFSET 2.329242 4e-06 4e-06
                          CHANNELS 3 Zrotation Yrotation Xrotation
                          JOINT LeftHandIndexEnd
                          {
                            OFFSET 2.759615 -0.180537 -0.113024
                            CHANNELS 3 Zrotation Yrotation Xrotation
                          }
                        }
                      }
                    }
                  }
                  JOINT LeftHandMiddle1
                  {
                    OFFSET 3.163495 0.240981 1.000332
                    CHANNELS 3 Zrotation Yrotation Xrotation
                    JOINT LeftHandMiddle2
                    {
                      OFFSET 6.19078 -0.259278 -1.002548
                      CHANNELS 3 Zrotation Yrotation Xrotation
                      JOINT LeftHandMiddle3
                      {
                        OFFSET 4.35652 -4e-06 -1e-06
                        CHANNELS 3 Zrotation Yrotation Xrotation
                        JOINT LeftHandMiddle4
                        {
                          OFFSET 2.996877 -8e-06 0.0
                          CHANNELS 3 Zrotation Yrotation Xrotation
                          JOINT LeftHandMiddleEnd
                          {
                            OFFSET 2.304287 -0.294569 -0.031741
                            CHANNELS 3 Zrotation Yrotation Xrotation
                          }
                        }
                      }
                    }
                  }
                  JOINT LeftHandRing1
                  {
                    OFFSET 2.882643 -0.053652 -0.322543
                    CHANNELS 3 Zrotation Yrotation Xrotation
                    JOINT LeftHandRing2
                    {
                      OFFSET 5.854541 -0.486202 -1.373841
                      CHANNELS 3 Zrotation Yrotation Xrotation
                      JOINT LeftHandRing3
                      {
                        OFFSET 4.350578 0.0 3e-06
                        CHANNELS 3 Zrotation Yrotation Xrotation
                        JOINT LeftHandRing4
                        {
                          OFFSET 2.651321 7e-06 2e-06
                          CHANNELS 3 Zrotation Yrotation Xrotation
                          JOINT LeftHandRingEnd
                          {
                            OFFSET 1.936105 0.077687 -7.1e-05
                            CHANNELS 3 Zrotation Yrotation Xrotation
                          }
                        }
                      }
                    }
                  }
                  JOINT LeftHandPinky1
                  {
                    OFFSET 2.8655 -0.310005 -1.600378
                    CHANNELS 3 Zrotation Yrotation Xrotation
                    JOINT LeftHandPinky2
                    {
                      OFFSET 5.087849 -1.331141 -1.77123
                      CHANNELS 3 Zrotation Yrotation Xrotation
                      JOINT LeftHandPinky3
                      {
                        OFFSET 3.070974 4e-06 0.0
                        CHANNELS 3 Zrotation Yrotation Xrotation
                        JOINT LeftHandPinky4
                        {
                          OFFSET 1.549672 0.0 1e-06
                          CHANNELS 3 Zrotation Yrotation Xrotation
                          JOINT LeftHandPinkyEnd
                          {
                            OFFSET 1.944893 -0.157802 0.057219
                            CHANNELS 3 Zrotation Yrotation Xrotation
                          }
                        }
                      }
                    }
                  }
                }
              }
            }
          }
          JOINT RightShoulder
          {
            OFFSET -1.380118 23.180309 5.214158
            CHANNELS 3 Zrotation Yrotation Xrotation
            JOINT RightArm
            {
              OFFSET -15.037196 1.2e-05 -5.545604
              CHANNELS 3 Zrotation Yrotation Xrotation
              JOINT RightForeArm
              {
                OFFSET -28.736639 2e-06 -0.002597
                CHANNELS 3 Zrotation Yrotation Xrotation
                JOINT RightHand
                {
                  OFFSET -27.133619 -0.0 0.002613
                  CHANNELS 3 Zrotation Yrotation Xrotation
                  JOINT RightHandThumb1
                  {
                    OFFSET -2.274032 -1.383988 3.163127
                    CHANNELS 3 Zrotation Yrotation Xrotation
                    JOINT RightHandThumb2
                    {
                      OFFSET -4.011429 -1.827466 1.640914
                      CHANNELS 3 Zrotation Yrotation Xrotation
                      JOINT RightHandThumb3
                      {
                        OFFSET -2.794935 -4e-06 -3e-06
                        CHANNELS 3 Zrotation Yrotation Xrotation
                        JOINT RightHandThumbEnd
                        {
                          OFFSET -3.183852 4e-06 1e-06
                          CHANNELS 3 Zrotation Yrotation Xrotation
                        }
                      }
                    }
                  }
                  JOINT RightHandIndex1
                  {
                    OFFSET -3.253266 -0.520057 2.282866
                    CHANNELS 3 Zrotation Yrotation Xrotation
                    JOINT RightHandIndex2
                    {
                      OFFSET -6.341917 0.012471 0.178266
                      CHANNELS 3 Zrotation Yrotation Xrotation
                      JOINT RightHandIndex3
                      {
                        OFFSET -3.654871 -8e-06 -0.0
                        CHANNELS 3 Zrotation Yrotation Xrotation
                        JOINT RightHandIndex4
                        {
                          OFFSET -2.327586 0.0 1e-06
                          CHANNELS 3 Zrotation Yrotation Xrotation
                          JOINT RightHandIndexEnd
                          {
                            OFFSET -2.76179 -0.180656 -0.113078
                            CHANNELS 3 Zrotation Yrotation Xrotation
                          }
                        }
                      }
                    }
                  }
                  JOINT RightHandMiddle1
                  {
                    OFFSET -3.168106 0.246593 1.00103
                    CHANNELS 3 Zrotation Yrotation Xrotation
                    JOINT RightHandMiddle2
                    {
                      OFFSET -6.180828 -0.258836 -1.000895
                      CHANNELS 3 Zrotation Yrotation Xrotation
                      JOINT RightHandMiddle3
                      {
                        OFFSET -4.348901 0.0 -0.0
                        CHANNELS 3 Zrotation Yrotation Xrotation
                        JOINT RightHandMiddle4
                        {
                          OFFSET -3.00024 -4e-06 -2e-06
                          CHANNELS 3 Zrotation Yrotation Xrotation
                          JOINT RightHandMiddleEnd
                          {
                            OFFSET -2.30252 -0.29437 -0.031706
                            CHANNELS 3 Zrotation Yrotation Xrotation
                          }
                        }
                      }
                    }
                  }
                  JOINT RightHandRing1
                  {
                    OFFSET -2.88569 -0.067952 -0.308858
                    CHANNELS 3 Zrotation Yrotation Xrotation
                    JOINT RightHandRing2
                    {
                      OFFSET -5.854198 -0.48613 -1.373731
                      CHANNELS 3 Zrotation Yrotation Xrotation
                      JOINT RightHandRing3
                      {
                        OFFSET -4.33881 -4e-06 -0.0
                        CHANNELS 3 Zrotation Yrotation Xrotation
                        JOINT RightHandRing4
                        {
                          OFFSET -2.654903 -4e-06 4e-06
                          CHANNELS 3 Zrotation Yrotation Xrotation
                          JOINT RightHandRingEnd
                          {
                            OFFSET -1.933568 0.077527 -5.2e-05
                            CHANNELS 3 Zrotation Yrotation Xrotation
                          }
                        }
                      }
                    }
                  }
                  JOINT RightHandPinky1
                  {
                    OFFSET -2.866425 -0.342796 -1.584145
                    CHANNELS 3 Zrotation Yrotation Xrotation
                    JOINT RightHandPinky2
                    {
                      OFFSET -5.091371 -1.332055 -1.772385
                      CHANNELS 3 Zrotation Yrotation Xrotation
                      JOINT RightHandPinky3
                      {
                        OFFSET -3.062664 -4e-06 1e-06
                        CHANNELS 3 Zrotation Yrotation Xrotation
                        JOINT RightHandPinky4
                        {
                          OFFSET -1.546529 4e-06 -2e-06
                          CHANNELS 3 Zrotation Yrotation Xrotation
                          JOINT RightHandPinkyEnd
                          {
                            OFFSET -1.945119 -0.157718 0.057211
                            CHANNELS 3 Zrotation Yrotation Xrotation
                          }
                        }
                      }
                    }
                  }
                }
              }
            }
          }
        }
      }
    }
    JOINT LeftLeg
    {
      OFFSET 10.043214 -8.434526 2.595655
      CHANNELS 3 Zrotation Yrotation Xrotation
      JOINT LeftShin
      {
        OFFSET -1e-06 -43.221752 -0.802913
        CHANNELS 3 Zrotation Yrotation Xrotation
        JOINT LeftFoot
        {
          OFFSET 1e-06 -42.155094 -3.481523
          CHANNELS 3 Zrotation Yrotation Xrotation
          JOINT LeftToeBase
          {
            OFFSET 0.0 -5.059472 13.231529
            CHANNELS 3 Zrotation Yrotation Xrotation
            JOINT LeftToeEnd
            {
              OFFSET -0.009607 -1.647619 6.513017
              CHANNELS 3 Zrotation Yrotation Xrotation
            }
          }
        }
      }
    }
    JOINT RightLeg
    {
      OFFSET -10.047278 -8.29526 2.620317
      CHANNELS 3 Zrotation Yrotation Xrotation
      JOINT RightShin
      {
        OFFSET 1e-06 -43.362206 -0.805556
        CHANNELS 3 Zrotation Yrotation Xrotation
        JOINT RightFoot
        {
          OFFSET 2e-06 -42.117393 -3.478398
          CHANNELS 3 Zrotation Yrotation Xrotation
          JOINT RightToeBase
          {
            OFFSET -0.0 -5.079609 13.284196
            CHANNELS 3 Zrotation Yrotation Xrotation
            JOINT RightToeEnd
            {
              OFFSET 0.009532 -1.634378 6.460591
              CHANNELS 3 Zrotation Yrotation Xrotation
            }
          }
        }
      }
    }
  }
}
MOTION
Frames: 4
Frame Time: 0.03333333333333333
0.0 0.0 0.0 0.0 -0.0 0.0 208.992264 84.36441 58.215939 -1.268846 -13.448847 12.943827 -2.020288 -2.075061 9.072905 -1.856729 -3.221898 -1.869298 -1.064718 -7.662878 9.293404 8.858157 -1.155165 6.508821 0.438998 1.572874 -3.770684 8.272901 0.695353 -0.16042 7.8e-05 -2.2e-05 6e-06 0.040153 -0.068063 -0.042397 0.820193 -3.792511 -10.853028 -0.717583 3.651535 -10.829077 4.284949 -12.887105 9.835647 -58.807739 -42.610638 21.87413 -0.309634 -56.677944 0.217044 28.369646 -27.865503 31.51844 -5.88211 9.861285 0.702592 -10.936875 -0.360574 7.156209 -0.0 8.774823 -0.0 -21.17375 20.767942 6.083575 -1.844033 2.498506 -2.507279 -10.163604 4.678944 4.621111 -20.97603 -2e-06 2e-06 -21.226297 2.451699 -3.594002 0.0 -8e-06 -1e-06 -1.362683 2.240798 -0.746324 -21.334925 0.584912 3.008327 -13.82122 -2e-06 2e-06 -23.887184 -0.249078 -0.839486 -68.97464 -0.101251 0.506265 -0.294026 1.679687 0.833257 -14.218214 0.093216 1.300581 -34.212059 -0.287561 0.967171 -20.033224 0.964539 1.212843 -1e-06 1e-06 1e-06 -3.440389 0.788233 0.501656 -15.928192 -3.167309 2.999709 -6.338828 -2e-06 0.0 -18.123455 3.648184 -4.905673 -5e-06 0.0 -2e-06 -4.160136 5.748013 8.287457 64.243187 -9.590441 -5.295368 3.747617 37.300121 2.02219 -11.910702 11.852733 13.250967 2.24354 -5.255036 -3.180157 14.282893 -0.826594 6.952503 -3e-06 -12.690605 1e-06 20.687025 -17.472855 2.547015 1.665666 -1.955921 -2.878298 4.727799 -4.170587 4.993924 11.020527 4e-06 -1e-06 12.109053 -3.735715 -2.866782 0.0 0.0 -0.0 1.291986 -1.928549 -1.498089 14.800127 0.567469 3.865609 14.242572 -1.341735 -6.660655 19.631969 0.143926 -0.648243 58.543835 -1.612198 -0.679064 0.353027 -1.51115 -0.03194 20.222788 3.684309 2.316631 18.78727 4e-06 0.0 10.751627 -0.479868 1.397907 -0.0 0.0 -0.0 3.273806 0.305947 -0.580111 21.486813 11.830376 2.266133 8.162928 1e-06 -1e-06 18.39908 -3.798986 -4.940573 3e-06 -0.0 -1e-06 29.850368 4.955565 19.637232 0.231965 -4.195234 12.532968 -17.981466 -11.016375 10.795388 2.206912 -1.633743 -25.772139 -0.0 -0.0 2e-06 11.523902 -18.206005 -68.401451 -0.434763 -0.965857 95.921967 -3.365392 0.319481 -3.214076 -1.125978 0.472522 -3.711765 -1e-06 -1e-06 -3e-06 
0.0 0.0 0.0 0.0 -0.0 0.0 203.98912 84.797417 65.917244 -1.447654 -12.92612 13.460128 -1.083675 -2.266329 8.125136 -1.261857 -4.242201 -2.074217 -0.515151 -8.161138 8.312393 8.756072 -1.417105 6.617354 0.350534 1.533028 -3.784004 6.261737 1.051298 1.508247 7.8e-05 -2.3e-05 6e-06 0.057801 -0.099075 -0.090739 0.838333 -3.833291 -10.830036 -0.705106 3.633956 -10.849495 4.314875 -13.39277 9.457632 -54.005959 -41.803661 6.80764 3.820551 -62.916611 -2.896127 31.093435 -25.907427 40.258026 -5.88211 9.861292 0.702588 -10.93688 -0.36058 7.15621 2e-06 8.77483 -2e-06 -19.349821 19.60969 7.02653 -1.844034 2.498507 -2.507279 -10.163607 4.678946 4.621109 -20.97604 -6e-06 -1e-06 -21.226303 2.451694 -3.594004 0.0 -6e-06 -0.0 -1.362683 2.2408 -0.746325 -21.334934 0.584906 3.008322 -13.821227 -2e-06 1e-06 -23.887192 -0.249083 -0.839484 -65.708565 1.846226 -0.005115 -0.294024 1.679688 0.833256 -14.218221 0.093213 1.300579 -34.212082 -0.287568 0.967168 -20.03323 0.964532 1.212843 1e-06 0.0 1e-06 -3.440391 0.788235 0.501655 -15.928201 -3.167314 2.999707 -6.338831 -1e-06 1e-06 -18.123461 3.648183 -4.905676 -5e-06 1e-06 -3e-06 -4.89584 3.157026 9.115126 68.029854 -24.941322 -8.276588 2.217317 46.979801 1.936681 -8.639733 5.016463 16.819361 2.243542 -5.255039 -3.18016 14.282896 -0.826596 6.952507 -2e-06 -12.690609 2e-06 21.041399 -16.080566 1.716074 1.665665 -1.955922 -2.878301 4.7278 -4.17059 4.993928 11.020529 3e-06 -1e-06 12.109056 -3.735717 -2.866786 0.0 0.0 0.0 1.291985 -1.928549 -1.49809 14.800136 0.567468 3.86561 14.242578 -1.341736 -6.660661 19.631973 0.143927 -0.648245 56.956062 -1.167979 -1.317714 0.353029 -1.511151 -0.03194 20.222799 3.684312 2.316631 18.787281 5e-06 -0.0 10.751633 -0.479868 1.397907 -0.0 -0.0 -0.0 3.273807 0.305948 -0.580111 21.486824 11.83038 2.266134 8.16293 1e-06 -0.0 18.399092 -3.798988 -4.940578 3e-06 0.0 -1e-06 31.837507 4.199691 19.307652 0.181187 -4.365232 15.010452 -16.778427 -9.73 18.98683 2.163871 -1.5379 -23.920265 1e-06 0.0 1e-06 10.695085 -17.910187 -72.875107 -0.306585 -0.590676 91.907516 -1.573635 0.020323 -7.617143 -1.338893 0.606544 -4.171738 0.0 1e-06 -1e-06 
0.0 0.0 0.0 0.0 -0.0 0.0 197.58606 85.552795 74.90522 -0.773995 -14.002664 12.737906 -0.767702 -2.147021 7.877598 -0.802661 -4.864559 -2.120857 -0.664912 -8.009574 8.08848 8.487259 -1.339212 5.553181 0.080425 1.832827 -3.76591 3.921829 1.524095 1.646623 7.7e-05 -2.1e-05 6e-06 0.028515 -0.081193 -0.125635 0.823383 -3.834574 -10.849934 -0.757374 3.674422 -10.883544 3.07198 -13.717264 9.516662 -47.801914 -37.933979 -8.35426 7.201411 -63.256355 -5.215478 35.969418 -20.669106 42.124767 -5.882108 9.861288 0.702589 -10.936875 -0.360578 7.156208 1e-06 8.774827 -2e-06 -17.977919 19.420816 6.868229 -1.844033 2.498504 -2.507277 -10.163603 4.678946 4.621109 -20.976028 -4e-06 2e-06 -21.226292 2.451697 -3.594002 1e-06 -4e-06 -0.0 -1.362682 2.240798 -0.746324 -21.334919 0.584909 3.008324 -13.821218 -2e-06 2e-06 -23.88718 -0.24908 -0.839483 -62.704628 3.171274 -1.366956 -0.294026 1.679687 0.833256 -14.218213 0.093214 1.300581 -34.212063 -0.287564 0.967173 -20.033218 0.964537 1.212846 2e-06 0.0 -0.0 -3.440389 0.788232 0.501657 -15.928189 -3.167311 2.999709 -6.338828 -2e-06 1e-06 -18.123451 3.648182 -4.905671 -4e-06 -0.0 -1e-06 -5.020454 1.82802 10.451375 71.472496 -37.090935 -16.106352 -1.274034 53.488262 0.028857 -9.220196 -2.806264 19.74209 2.243542 -5.255041 -3.18016 14.282898 -0.826595 6.952506 -2e-06 -12.690609 0.0 21.427006 -15.30433 0.837851 1.665667 -1.955922 -2.8783 4.727802 -4.17059 4.993926 11.020535 4e-06 -2e-06 12.10906 -3.735716 -2.866786 -0.0 -0.0 0.0 1.291986 -1.92855 -1.498091 14.800139 0.567468 3.865609 14.242582 -1.341734 -6.660661 19.631981 0.143928 -0.648245 55.499069 -0.244437 -2.289093 0.353029 -1.511151 -0.03194 20.222803 3.68431 2.31663 18.787285 4e-06 -3e-06 10.751634 -0.47987 1.397906 -0.0 3e-06 1e-06 3.273805 0.305948 -0.580112 21.486828 11.830379 2.266133 8.162933 2e-06 -0.0 18.399096 -3.798986 -4.940578 3e-06 0.0 0.0 31.040693 3.119921 16.631132 0.074345 -4.229112 24.424229 -14.557748 -10.067408 23.593477 2.049337 -1.653152 -15.716774 1e-06 -0.0 3e-06 10.003299 -17.152344 -75.947327 -0.092163 -0.322009 87.144356 1.957513 1.680314 -10.100698 -1.480778 0.808801 -5.056404 0.0 1e-06 -1e-06 
0.0 0.0 0.0 0.0 -0.0 0.0 191.026978 86.203415 84.017899 0.167399 -16.621159 11.150593 -0.601507 -1.744648 8.262429 -0.378633 -4.888115 -2.064448 -0.882472 -7.252007 8.552773 7.590431 -0.943507 3.511098 0.060118 2.194323 -3.809644 1.419902 2.319719 0.460539 7.8e-05 -2.2e-05 6e-06 -0.029441 0.019498 -0.145724 0.780666 -3.747395 -10.87286 -0.840678 3.791681 -10.875527 1.078303 -12.877081 10.347882 -43.710197 -32.51469 -15.991563 7.444383 -57.675732 -5.116313 41.423626 -13.969966 35.355381 -5.882108 9.861288 0.702589 -10.936873 -0.360575 7.156206 -0.0 8.774828 -1e-06 -16.234369 19.475338 7.065681 -1.844033 2.498506 -2.507279 -10.163603 4.678946 4.621109 -20.97603 -4e-06 -1e-06 -21.226292 2.451696 -3.594004 -1e-06 -6e-06 -1e-06 -1.362682 2.240799 -0.746324 -21.334917 0.58491 3.008321 -13.821216 -3e-06 0.0 -23.887175 -0.249081 -0.839486 -60.671757 3.187113 -1.88188 -0.294025 1.679688 0.833256 -14.21821 0.093215 1.300579 -34.212063 -0.287566 0.967166 -20.033218 0.964535 1.212842 -1e-06 0.0 -0.0 -3.440389 0.788233 0.501656 -15.928189 -3.16731 2.999707 -6.338828 -1e-06 -0.0 -18.123453 3.648184 -4.905675 -4e-06 -0.0 -2e-06 -4.500059 2.070832 11.541551 74.464737 -42.727192 -28.44561 -6.865849 54.619995 -3.601724 -14.08097 -13.603738 23.004169 2.24354 -5.255037 -3.18016 14.282904 -0.826594 6.952507 -3e-06 -12.690611 -2e-06 20.837185 -15.38747 0.173356 1.665666 -1.955922 -2.8783 4.727802 -4.170588 4.993926 11.020535 3e-06 3e-06 12.109058 -3.735717 -2.866783 0.0 -0.0 -1e-06 1.291986 -1.92855 -1.498088 14.800142 0.567469 3.865614 14.24258 -1.341737 -6.660659 19.631983 0.143924 -0.648241 53.903198 -0.176681 -3.916118 0.353028 -1.511151 -0.03194 20.222809 3.684314 2.316636 18.787289 7e-06 2e-06 10.751637 -0.479869 1.39791 1e-06 0.0 -1e-06 3.27381 0.305948 -0.580108 21.486832 11.830384 2.26614 8.162934 2e-06 -0.0 18.399097 -3.798987 -4.940576 4e-06 -2e-06 -2e-06 27.636675 1.829798 11.602062 -0.168289 -3.656804 40.109917 -13.321925 -12.456903 24.649994 1.952892 -1.802171 -8.349661 1e-06 -0.0 2e-06 10.000087 -15.888646 -77.387016 -0.057099 -0.285268 82.150108 4.0936 2.228853 -11.743817 -1.54261 0.950302 -5.48884 -0.0 0.0 -1e-06 
